<svg xmlns="http://www.w3.org/2000/svg" width="21.863" height="18.491" viewBox="0 0 21.863 18.491">
  <g id="Samelet_Dots" data-name="Samelet Dots" transform="translate(570.536 98.492)">
    <path id="Path_948" data-name="Path 948" d="M1599.251,11.313a3.175,3.175,0,0,1-.559-.007,4.345,4.345,0,0,1-.761-.2,4.234,4.234,0,0,1-1.923-1.355,4.47,4.47,0,0,1-.746-1.344,4.375,4.375,0,0,1,1.35-4.8,4.343,4.343,0,0,1,1.94-.914,3.98,3.98,0,0,1,1.217-.063,4.317,4.317,0,0,1,3.68,2.7,3.879,3.879,0,0,1,.3,1.461,4.685,4.685,0,0,1-.064,1.068,4.478,4.478,0,0,1-.6,1.46A4.286,4.286,0,0,1,1601.133,11a3.717,3.717,0,0,1-1.882.312Z" transform="translate(-2162.929 -101.102)" fill="#17a5af"/>
    <path id="Path_949" data-name="Path 949" d="M1568.908,124.768c-.256-.021-.516-.025-.768-.067a4.22,4.22,0,0,1-2.1-.954,4.348,4.348,0,0,1-1.392-2.116,4.508,4.508,0,0,1,.219-3.055,4.234,4.234,0,0,1,2.85-2.406,7.673,7.673,0,0,1,.8-.127l.315-.013h.291l.1.018a4.308,4.308,0,0,1,3.936,3.664,7.1,7.1,0,0,1,.041.856c0,.062-.008.124-.012.186a4.23,4.23,0,0,1-1.8,3.2,4.16,4.16,0,0,1-2.255.789c-.057,0-.113.014-.17.021l-.051,0Z" transform="translate(-2135.011 -204.773)" fill="#17a5af"/>
    <path id="Path_950" data-name="Path 950" d="M1717.35,7.413c0-.229,0-.458.008-.687a4.194,4.194,0,0,1,.959-2.456,4.1,4.1,0,0,1,2.562-1.52,4.3,4.3,0,0,1,3.522.835,4.253,4.253,0,0,1,1.436,2.038,4.4,4.4,0,0,1-1.6,4.988,4.64,4.64,0,0,1-1.785.747,3.7,3.7,0,0,1-.77.033c-.229,0-.458-.006-.686-.025a2.64,2.64,0,0,1-.3-.08,4.063,4.063,0,0,1-1.969-1.037,4.16,4.16,0,0,1-1.307-2.383c-.022-.133-.041-.267-.061-.4,0-.017,0-.034,0-.052Z" transform="translate(-2274.747 -101.157)" fill="#16a5af"/>
    <path id="Path_951" data-name="Path 951" d="M1686.756,120.908c-.005-.3-.011-.6-.016-.9.008-.075.015-.15.022-.225a4.311,4.311,0,0,1,1.1-2.35,4.457,4.457,0,0,1,2.489-1.369,3.158,3.158,0,0,1,.4-.034l.232-.014h.3l.187.017a4.18,4.18,0,0,1,2.12.743,4.234,4.234,0,0,1,1.519,1.876,5.74,5.74,0,0,1,.229.776,4.21,4.21,0,0,1,.066,1.654,3.84,3.84,0,0,1-.355,1.16,4.689,4.689,0,0,1-1.177,1.515,3.841,3.841,0,0,1-1.628.833c-.339.081-.69.109-1.036.161l-.059.009h-.075l-.1,0c-.178-.02-.356-.037-.533-.06a4.125,4.125,0,0,1-2.014-.847,4.245,4.245,0,0,1-1.532-2.224c-.063-.218-.09-.447-.134-.67a.036.036,0,0,0,.006-.018.233.233,0,0,0-.012-.034Z" transform="translate(-2246.768 -204.764)" fill="#17a5af"/>
  </g>
</svg>
